<svg xmlns="http://www.w3.org/2000/svg" viewBox="10.17240047454834 18.317808151245117 18.676624298095703 20.39105796813965"><g xmlns="http://www.w3.org/2000/svg" clip-path="url(#clip1)">
<path fill-rule="evenodd" clip-rule="evenodd" d="M10.7878 18.3554C10.4141 18.4733 10.1724 18.8547 10.1724 19.4317L10.1747 37.5931C10.1747 38.1637 10.409 38.5393 10.7722 38.6647L20.8495 28.5019L10.7878 18.3554Z" fill="url(#paint0_linear)"></path>
<path fill-rule="evenodd" clip-rule="evenodd" d="M10.772 38.6641C11.0333 38.7535 11.3609 38.7117 11.7178 38.5143L24.0154 31.6942L20.8492 28.5013L10.772 38.6641Z" fill="url(#paint1_linear)"></path>
<path fill-rule="evenodd" clip-rule="evenodd" d="M24.0181 31.6934L28.2113 29.3684C29.0616 28.8953 29.0616 28.1255 28.2113 27.6535L24.0025 25.3198L20.8501 28.4988L24.0181 31.6934Z" fill="url(#paint2_linear)"></path>
<path fill-rule="evenodd" clip-rule="evenodd" d="M24.001 25.3226L11.7178 18.5118C11.3695 18.3197 11.0483 18.275 10.7881 18.3568L20.8492 28.5016L24.001 25.3226Z" fill="url(#paint3_linear)"></path>
</g></svg>